<mxfile host="Electron" modified="2024-07-10T09:38:51.581Z" agent="Mozilla/5.0 (Windows NT 10.0; Win64; x64) AppleWebKit/537.36 (KHTML, like Gecko) draw.io/22.0.2 Chrome/114.0.5735.289 Electron/25.8.4 Safari/537.36" etag="ALkIzgwNMhZ8n33fKm-D" version="22.0.2" type="device">
  <diagram name="第 1 页" id="XWjhuGjZIDZvUrzgFzQ1">
    <mxGraphModel dx="1656" dy="818" grid="1" gridSize="10" guides="1" tooltips="1" connect="1" arrows="1" fold="1" page="1" pageScale="1" pageWidth="827" pageHeight="1169" math="0" shadow="0">
      <root>
        <mxCell id="0" />
        <mxCell id="1" parent="0" />
        <mxCell id="8IIWbgOfYEv6ufVQHXfe-1" value="&lt;b&gt;&lt;font face=&quot;新宋体&quot;&gt;开发团队&lt;/font&gt;&lt;/b&gt;" style="whiteSpace=wrap;html=1;align=center;fillColor=#647687;fontColor=#ffffff;strokeColor=#314354;" parent="1" vertex="1">
          <mxGeometry x="40" y="40" width="160" height="30" as="geometry" />
        </mxCell>
        <mxCell id="8IIWbgOfYEv6ufVQHXfe-2" value="&lt;div style=&quot;border-color: var(--border-color);&quot;&gt;&lt;font face=&quot;新宋体&quot;&gt;&lt;u&gt;学号&lt;/u&gt;&lt;/font&gt;&lt;/div&gt;&lt;div style=&quot;border-color: var(--border-color);&quot;&gt;&lt;font face=&quot;新宋体&quot;&gt;姓名&lt;/font&gt;&lt;/div&gt;&lt;div style=&quot;border-color: var(--border-color);&quot;&gt;&lt;font face=&quot;新宋体&quot;&gt;学校&lt;/font&gt;&lt;/div&gt;&lt;div style=&quot;border-color: var(--border-color);&quot;&gt;&lt;font face=&quot;新宋体&quot;&gt;电子邮箱&lt;/font&gt;&lt;/div&gt;&lt;div style=&quot;border-color: var(--border-color);&quot;&gt;&lt;font face=&quot;新宋体&quot;&gt;GitHub名称&lt;/font&gt;&lt;/div&gt;&lt;div style=&quot;border-color: var(--border-color);&quot;&gt;&lt;font face=&quot;新宋体&quot;&gt;GitHub主页&lt;/font&gt;&lt;/div&gt;" style="whiteSpace=wrap;html=1;align=center;" parent="1" vertex="1">
          <mxGeometry x="40" y="70" width="160" height="100" as="geometry" />
        </mxCell>
      </root>
    </mxGraphModel>
  </diagram>
</mxfile>
